<svg id="Layer_1" data-name="Layer 1" xmlns="http://www.w3.org/2000/svg" xmlns:xlink="http://www.w3.org/1999/xlink" viewBox="0 0 855.22 815.47"><defs><style>.cls-1{fill:#fff;}.cls-2,.cls-8{fill:#2d2e40;}.cls-2{fill-rule:evenodd;opacity:0.08;}.cls-2,.cls-3,.cls-4{isolation:isolate;}.cls-3,.cls-4,.cls-9{fill:none;}.cls-3,.cls-4{stroke:#2d2e40;}.cls-3{opacity:0.5;}.cls-4{opacity:0.25;}.cls-5{filter:url(#b);}.cls-6{fill:url(#linear-gradient);}.cls-7{mask:url(#mask);}.cls-9{stroke-linecap:round;stroke-width:8px;stroke:url(#linear-gradient-2);}</style><filter id="b" x="-10.9" y="-11.7" width="121.8" height="132.8" name="b"><feOffset result="shadowOffsetOuter1" dy="20" in="SourceAlpha"/><feGaussianBlur result="shadowBlurOuter1" stdDeviation="20" in="shadowOffsetOuter1"/></filter><linearGradient id="linear-gradient" x1="156.45" y1="818.45" x2="157.34" y2="818.05" gradientTransform="matrix(642, 0, 0, -427, -100386.29, 349818.09)" gradientUnits="userSpaceOnUse"><stop offset="0" stop-color="#ff8f71"/><stop offset="1" stop-color="#ff3e55"/></linearGradient><mask id="mask" x="55.01" y="234.44" width="573.05" height="381.14" maskUnits="userSpaceOnUse"><g id="d"><rect id="a" class="cls-1" x="55.01" y="234.44" width="573.05" height="381.14" rx="13.39"/></g></mask><linearGradient id="linear-gradient-2" x1="156.19" y1="818.54" x2="157.18" y2="818.38" gradientTransform="matrix(381, 0, 0, -155, -59286.08, 127282.54)" xlink:href="#linear-gradient"/></defs><title>Artboard 1</title><path class="cls-2" d="M452.21,684.31h0C600.1,684.31,720,564.42,720,416.53v-1.79C720,266.85,600.1,147,452.21,147h0c-147.89,0-267.78,119.89-267.78,267.78v1.79C184.43,564.42,304.32,684.31,452.21,684.31Z"/><path class="cls-3" d="M452.21,716h0c167.37,0,303-135.68,303-303v-1.79c0-167.36-135.67-303-303-303h0c-167.36,0-303,135.68-303,303V413C149.18,580.32,284.85,716,452.21,716Z"/><path class="cls-4" d="M452.21,805.26h0c216.66,0,392.3-175.64,392.3-392.3v-1.79c0-216.66-175.64-392.3-392.3-392.3h0c-216.66,0-392.29,175.64-392.29,392.3V413C59.92,629.62,235.55,805.26,452.21,805.26Z"/><g class="cls-5"><rect x="55.01" y="234.44" width="573.05" height="381.14" rx="13.39"/></g><rect class="cls-6" x="55.01" y="234.44" width="573.05" height="381.14" rx="13.39"/><g class="cls-7"><rect class="cls-1" x="135.81" y="277.02" width="121.2" height="122.43" rx="2.68"/></g><g class="cls-7"><ellipse class="cls-8" cx="196.41" cy="338.77" rx="35.08" ry="35.13"/></g><g class="cls-7"><rect class="cls-1" x="277.21" y="277.02" width="270.05" height="290.65" rx="2.68"/></g><path class="cls-9" d="M241.56,487.94q63.09-98.24,93.33-106.17c30.23-7.93,21.21,74.21,64.74,64.69s48.84-92.81,81.77-96.73S531.74,422,546.12,429q14.39,7,35.52-30.35"/></svg>