<?xml version="1.0" encoding="utf-8"?>
<!-- Generator: Adobe Illustrator 23.0.1, SVG Export Plug-In . SVG Version: 6.00 Build 0)  -->
<svg version="1.0" id="Layer_1" xmlns="http://www.w3.org/2000/svg" xmlns:xlink="http://www.w3.org/1999/xlink" x="0px" y="0px"
	 viewBox="0 0 925 882" style="enable-background:new 0 0 925 882;" xml:space="preserve">
<style type="text/css">
	.st0{opacity:8.000000e-02;fill-rule:evenodd;clip-rule:evenodd;fill:#2D2E40;enable-background:new    ;}
	.st1{opacity:0.5;fill:none;stroke:#2D2E40;enable-background:new    ;}
	.st2{opacity:0.25;fill:none;stroke:#2D2E40;enable-background:new    ;}
	.st3{filter:url(#b);}
	.st4{fill:url(#SVGID_1_);}
	.st5{filter:url(#Adobe_OpacityMaskFilter);}
	.st6{fill-rule:evenodd;clip-rule:evenodd;fill:#FFFFFF;}
	.st7{mask:url(#d_1_);fill:url(#SVGID_2_);}
	.st8{filter:url(#Adobe_OpacityMaskFilter_1_);}
	.st9{mask:url(#d_2_);fill:#FFFFFF;}
	.st10{filter:url(#Adobe_OpacityMaskFilter_2_);}
	.st11{mask:url(#d_3_);fill-rule:evenodd;clip-rule:evenodd;fill:#2D2E40;}
	.st12{filter:url(#Adobe_OpacityMaskFilter_3_);}
	.st13{mask:url(#d_4_);fill:#FFFFFF;}
	.st14{fill:none;stroke:url(#SVGID_3_);stroke-width:8;stroke-linecap:round;}
</style>
<filter  filterUnits="objectBoundingBox" height="132.8%" id="b" width="121.8%" x="-10.9%" y="-11.7%">
	<feOffset  dy="20" in="SourceAlpha" result="shadowOffsetOuter1"></feOffset>
	<feGaussianBlur  in="shadowOffsetOuter1" result="shadowBlurOuter1" stdDeviation="20"></feGaussianBlur>
	<feColorMatrix  in="shadowBlurOuter1" values="0 0 0 0 0.421821759 0 0 0 0 0.554338424 0 0 0 0 0.893710371 0 0 0 0.243444056 0">
		</feColorMatrix>
</filter>
<g transform="translate(40)">
	<path class="st0" d="M536,591.6L536,591.6c131.4,0,237.9-106.5,237.9-237.9v-1.6c0-131.4-106.5-237.9-237.9-237.9l0,0
		c-131.4,0-237.9,106.5-237.9,237.9v1.6C298.2,485.1,404.7,591.6,536,591.6z"/>
	<path class="st1" d="M536,619.8L536,619.8c148.7,0,269.2-120.5,269.2-269.2V349c0-148.7-120.5-269.2-269.2-269.2l0,0
		c-148.7,0-269.2,120.5-269.2,269.2v1.6C266.8,499.2,387.4,619.8,536,619.8z"/>
	<path class="st2" d="M536,699L536,699c192.5,0,348.5-156,348.5-348.5V349c0-192.5-156-348.5-348.5-348.5l0,0
		c-192.5,0-348.5,156-348.5,348.5v1.6C187.5,543,343.6,699,536,699z"/>
	<g transform="translate(0 242)">
		<g>
			<g class="st3">
				<path d="M195.1-50h485.3c6.6,0,11.9,5.3,11.9,11.9v314.8c0,6.6-5.3,11.9-11.9,11.9H195.1c-6.6,0-11.9-5.3-11.9-11.9V-38.1
					C183.2-44.7,188.5-50,195.1-50z"/>
			</g>
			<g>
				
					<linearGradient id="SVGID_1_" gradientUnits="userSpaceOnUse" x1="117.0408" y1="595.0015" x2="117.8337" y2="594.6507" gradientTransform="matrix(642 0 0 -427 -74957 254110)">
					<stop  offset="0" style="stop-color:#FF8F71"/>
					<stop  offset="1" style="stop-color:#FF3E55"/>
				</linearGradient>
				<path class="st4" d="M195.1-50h485.3c6.6,0,11.9,5.3,11.9,11.9v314.8c0,6.6-5.3,11.9-11.9,11.9H195.1c-6.6,0-11.9-5.3-11.9-11.9
					V-38.1C183.2-44.7,188.5-50,195.1-50z"/>
			</g>
		</g>
		<defs>
			<filter id="Adobe_OpacityMaskFilter" filterUnits="userSpaceOnUse" x="183.2" y="-50" width="0" height="0">
				<feColorMatrix  type="matrix" values="1 0 0 0 0  0 1 0 0 0  0 0 1 0 0  0 0 0 1 0"/>
			</filter>
		</defs>
		<mask maskUnits="userSpaceOnUse" x="183.2" y="-50" width="0" height="0" id="d_1_">
			<g class="st5">
				<path id="a_1_" class="st6" d="M195.1-50h485.3c6.6,0,11.9,5.3,11.9,11.9v314.8c0,6.6-5.3,11.9-11.9,11.9H195.1
					c-6.6,0-11.9-5.3-11.9-11.9V-38.1C183.2-44.7,188.5-50,195.1-50z"/>
			</g>
		</mask>
		
			<linearGradient id="SVGID_2_" gradientUnits="userSpaceOnUse" x1="117.0408" y1="595.2225" x2="117.0408" y2="595.2225" gradientTransform="matrix(642 0 0 -427 -74957 254110)">
			<stop  offset="0" style="stop-color:#FF8F71"/>
			<stop  offset="1" style="stop-color:#FF3E55"/>
		</linearGradient>
		<path class="st7" d="M183.2-50"/>
		<defs>
			<filter id="Adobe_OpacityMaskFilter_1_" filterUnits="userSpaceOnUse" x="255" y="-12.2" width="107.7" height="108.8">
				<feColorMatrix  type="matrix" values="1 0 0 0 0  0 1 0 0 0  0 0 1 0 0  0 0 0 1 0"/>
			</filter>
		</defs>
		<mask maskUnits="userSpaceOnUse" x="255" y="-12.2" width="107.7" height="108.8" id="d_2_">
			<g class="st8">
				<path id="a_2_" class="st6" d="M195.1-50h485.3c6.6,0,11.9,5.3,11.9,11.9v314.8c0,6.6-5.3,11.9-11.9,11.9H195.1
					c-6.6,0-11.9-5.3-11.9-11.9V-38.1C183.2-44.7,188.5-50,195.1-50z"/>
			</g>
		</mask>
		<path class="st9" d="M257.3-12.2h102.9c1.3,0,2.4,1.1,2.4,2.4v104c0,1.3-1.1,2.4-2.4,2.4H257.3c-1.3,0-2.4-1.1-2.4-2.4v-104
			C255-11.1,256-12.2,257.3-12.2z"/>
		<defs>
			<filter id="Adobe_OpacityMaskFilter_2_" filterUnits="userSpaceOnUse" x="277.6" y="11.5" width="62.3" height="62.4">
				<feColorMatrix  type="matrix" values="1 0 0 0 0  0 1 0 0 0  0 0 1 0 0  0 0 0 1 0"/>
			</filter>
		</defs>
		<mask maskUnits="userSpaceOnUse" x="277.6" y="11.5" width="62.3" height="62.4" id="d_3_">
			<g class="st10">
				<path id="a_3_" class="st6" d="M195.1-50h485.3c6.6,0,11.9,5.3,11.9,11.9v314.8c0,6.6-5.3,11.9-11.9,11.9H195.1
					c-6.6,0-11.9-5.3-11.9-11.9V-38.1C183.2-44.7,188.5-50,195.1-50z"/>
			</g>
		</mask>
		<ellipse class="st11" cx="308.8" cy="42.7" rx="31.2" ry="31.2"/>
		<defs>
			<filter id="Adobe_OpacityMaskFilter_3_" filterUnits="userSpaceOnUse" x="380.6" y="-12.2" width="239.9" height="258.2">
				<feColorMatrix  type="matrix" values="1 0 0 0 0  0 1 0 0 0  0 0 1 0 0  0 0 0 1 0"/>
			</filter>
		</defs>
		<mask maskUnits="userSpaceOnUse" x="380.6" y="-12.2" width="239.9" height="258.2" id="d_4_">
			<g class="st12">
				<path id="a_4_" class="st6" d="M195.1-50h485.3c6.6,0,11.9,5.3,11.9,11.9v314.8c0,6.6-5.3,11.9-11.9,11.9H195.1
					c-6.6,0-11.9-5.3-11.9-11.9V-38.1C183.2-44.7,188.5-50,195.1-50z"/>
			</g>
		</mask>
		<path class="st13" d="M382.9-12.2h235.1c1.3,0,2.4,1.1,2.4,2.4v253.4c0,1.3-1.1,2.4-2.4,2.4H382.9c-1.3,0-2.4-1.1-2.4-2.4V-9.8
			C380.6-11.1,381.6-12.2,382.9-12.2z"/>
	</g>
	
		<linearGradient id="SVGID_3_" gradientUnits="userSpaceOnUse" x1="116.8535" y1="837.4526" x2="117.8329" y2="837.2905" gradientTransform="matrix(381 0 0 -154.9991 -44211 130150.2734)">
		<stop  offset="0" style="stop-color:#FF8F71"/>
		<stop  offset="1" style="stop-color:#FF3E55"/>
	</linearGradient>
	<path class="st14" d="M348.9,417.2c37.4-58.2,65-89.6,82.9-94.3c26.9-7,18.8,65.9,57.5,57.5c38.7-8.5,43.4-82.4,72.6-85.9
		c29.2-3.5,44.7,64.2,57.5,70.4c8.5,4.2,19-4.8,31.5-27"/>
</g>
</svg>
